<?xml version="1.0" standalone="no"?>
<!DOCTYPE svg PUBLIC "-//W3C//DTD SVG 20010904//EN"
 "http://www.w3.org/TR/2001/REC-SVG-20010904/DTD/svg10.dtd">
<svg version="1.0" xmlns="http://www.w3.org/2000/svg"
 width="1024.000000pt" height="1024.000000pt" viewBox="0 0 1024.000000 1024.000000"
 preserveAspectRatio="xMidYMid meet">

<g transform="translate(0.000000,1024.000000) scale(0.100000,-0.100000)"
fill="#000000" stroke="none">
<path d="M3266 8524 c-215 -52 -394 -230 -463 -459 -17 -57 -18 -156 -19
-1800 0 -957 3 -1782 7 -1833 15 -178 77 -310 201 -428 83 -78 169 -128 273
-157 69 -20 105 -20 1755 -23 989 -2 1735 1 1806 6 195 15 312 68 434 196 84
89 143 203 166 319 13 70 15 307 17 1860 1 1657 0 1784 -16 1845 -56 210 -213
383 -424 463 l-58 22 -1810 2 c-1544 1 -1819 -1 -1869 -13z m3258 -689 c55
-28 78 -64 84 -127 5 -63 -21 -109 -78 -142 -35 -21 -44 -21 -1405 -24 -1219
-2 -1375 -1 -1411 13 -48 18 -77 47 -93 94 -28 84 -1 153 74 188 l50 23 1370
-2 c1348 -3 1371 -3 1409 -23z m-2292 -733 c43 -26 78 -92 78 -144 0 -48 -36
-99 -90 -125 -42 -21 -58 -23 -250 -23 -249 -1 -299 11 -334 78 -39 75 -21
169 40 209 32 20 176 31 394 29 112 -1 129 -3 162 -24z m2279 8 c95 -26 140
-167 75 -239 -52 -58 -8 -56 -1006 -59 -858 -2 -917 -1 -949 15 -55 28 -75 64
-74 128 2 69 26 112 79 142 l39 23 900 0 c562 0 913 -4 936 -10z m-745 -747
c55 -29 78 -77 72 -149 -5 -61 -30 -96 -88 -123 -31 -14 -136 -16 -1008 -19
-698 -2 -984 0 -1014 9 -148 40 -157 243 -13 294 34 12 193 14 1025 12 l985
-2 41 -22z m-470 -902 c260 -80 444 -325 444 -592 0 -280 -192 -533 -460 -605
-79 -21 -224 -24 -300 -5 -30 7 -93 31 -140 54 -160 77 -288 244 -325 422 -69
333 144 665 476 740 81 19 221 12 305 -14z m575 -111 c243 -108 519 -290 662
-438 l38 -39 -58 -63 c-79 -86 -216 -199 -343 -283 -94 -62 -419 -231 -428
-222 -2 1 15 27 37 56 81 108 141 260 161 413 26 191 -42 438 -161 589 -17 20
-28 37 -26 37 3 0 56 -22 118 -50z m-1447 -36 c-46 -71 -93 -190 -115 -289
-20 -95 -16 -275 10 -369 27 -100 88 -227 141 -294 22 -28 40 -54 40 -56 0 -8
-199 82 -285 129 -123 67 -250 153 -350 237 -109 92 -209 192 -204 206 9 23
204 179 327 262 151 101 411 234 469 239 6 1 -9 -29 -33 -65z"/>
<path d="M5027 5104 c-66 -20 -129 -84 -152 -154 -42 -127 13 -262 130 -316
139 -65 322 8 363 145 65 215 -122 392 -341 325z"/>
<path d="M5497 2989 c-21 -12 -47 -61 -47 -89 0 -33 26 -75 55 -88 77 -35 165
12 165 89 0 28 -27 77 -49 89 -25 13 -101 13 -124 -1z"/>
<path d="M1640 2646 c0 -191 -5 -367 -10 -397 -21 -112 -92 -158 -245 -158
l-90 -1 3 -89 3 -88 82 -7 c231 -18 360 43 438 208 l29 61 0 408 0 407 -105 0
-105 0 0 -344z"/>
<path d="M1945 2965 c3 -11 47 -195 99 -410 52 -214 104 -430 116 -480 12 -49
26 -107 31 -127 l10 -38 100 0 c94 0 100 1 109 23 10 23 149 560 171 661 10
45 15 55 21 40 4 -10 44 -161 89 -334 45 -173 86 -332 91 -353 l11 -38 100 3
101 3 29 115 c51 202 218 894 224 925 l5 30 -103 -5 -103 -5 -23 -115 c-55
-274 -148 -661 -154 -643 -4 10 -47 181 -95 381 -48 199 -91 366 -94 371 -3 6
-48 11 -100 12 l-94 2 -23 -89 c-12 -49 -50 -210 -83 -358 -33 -148 -62 -271
-64 -273 -2 -2 -18 65 -36 149 -18 84 -54 247 -79 361 l-46 208 -107 2 c-103
2 -107 1 -103 -18z"/>
<path d="M5166 2981 c-2 -3 -16 -51 -30 -106 -15 -55 -53 -183 -86 -285 -32
-102 -74 -233 -92 -292 -18 -60 -36 -108 -39 -108 -4 0 -10 12 -13 28 -4 15
-56 180 -117 367 -61 187 -114 351 -118 365 -7 25 -10 25 -123 28 l-116 3 84
-258 c46 -142 125 -382 176 -533 l93 -275 127 -3 126 -3 20 53 c11 29 61 184
112 343 51 160 118 373 151 473 32 101 59 190 59 198 0 10 -22 13 -105 12 -58
-1 -107 -4 -109 -7z"/>
<path d="M3320 2885 l0 -96 143 2 142 1 -3 -441 -3 -441 110 0 111 0 2 441 3
441 145 1 145 2 3 93 3 92 -401 0 -400 0 0 -95z"/>
<path d="M6064 2710 c-93 -20 -204 -103 -247 -186 -26 -51 -39 -146 -35 -265
4 -131 22 -183 91 -252 65 -65 133 -90 264 -95 102 -4 116 -2 165 20 72 33
124 81 154 140 l25 49 -68 30 c-57 25 -68 28 -75 15 -5 -8 -19 -28 -33 -44
-47 -56 -159 -64 -240 -19 -52 30 -76 66 -82 121 l-6 46 253 0 252 0 -4 103
c-2 84 -8 111 -29 157 -32 69 -77 113 -153 152 -64 32 -158 44 -232 28z m153
-176 c36 -18 79 -67 85 -97 3 -17 -7 -19 -157 -17 -87 0 -160 2 -162 4 -1 1 6
20 17 42 37 75 136 106 217 68z"/>
<path d="M7964 2710 c-54 -11 -131 -51 -170 -87 -83 -78 -114 -169 -114 -340
0 -144 21 -205 94 -278 69 -69 148 -95 284 -95 112 0 169 21 242 86 35 32 80
99 80 119 0 4 -30 20 -67 36 -63 29 -67 30 -76 12 -40 -70 -117 -102 -207 -84
-89 18 -139 66 -147 145 l-6 46 251 0 250 0 6 34 c10 51 -11 175 -39 233 -63
129 -231 205 -381 173z m155 -181 c38 -21 81 -74 81 -100 0 -11 -21 -14 -122
-11 -68 1 -140 3 -161 5 l-38 2 23 44 c40 78 138 105 217 60z"/>
<path d="M8847 2696 c-27 -7 -69 -27 -93 -44 l-44 -32 0 40 0 40 -100 0 -100
0 -2 -360 c-1 -198 -2 -375 -2 -392 l-1 -33 103 0 104 0 -1 180 c-1 217 10
328 36 364 28 38 89 65 161 69 l62 4 0 83 c0 103 -12 111 -123 81z"/>
<path d="M5450 2316 l0 -385 100 -3 100 -3 0 388 0 387 -100 0 -100 0 0 -384z"/>
<path d="M6544 2683 c3 -10 48 -178 101 -373 52 -195 100 -365 105 -377 9 -22
16 -23 104 -23 l95 0 20 68 c11 37 41 146 67 242 26 96 50 179 54 183 4 4 30
-70 60 -165 29 -95 63 -208 77 -250 l24 -78 89 0 89 0 11 38 c6 20 51 190 101
377 49 187 92 348 95 358 5 16 -2 18 -87 15 l-92 -3 -62 -265 c-34 -146 -63
-271 -66 -279 -3 -7 -18 33 -34 90 -16 57 -52 183 -81 279 l-52 175 -74 3 -75
3 -51 -188 c-28 -103 -62 -231 -76 -283 -13 -52 -27 -88 -29 -80 -7 21 -127
536 -127 544 0 3 -43 6 -96 6 -86 0 -95 -2 -90 -17z"/>
</g>
</svg>
